<?xml version="1.0" encoding="UTF-8" standalone="no"?>
<!DOCTYPE svg PUBLIC "-//W3C//DTD SVG 1.1//EN" "http://www.w3.org/Graphics/SVG/1.1/DTD/svg11.dtd">
<svg width="100%" height="100%" viewBox="0 0 1080 1080" version="1.1" xmlns="http://www.w3.org/2000/svg" xmlns:xlink="http://www.w3.org/1999/xlink" xml:space="preserve" xmlns:serif="http://www.serif.com/" style="fill-rule:evenodd;clip-rule:evenodd;stroke-linecap:round;stroke-linejoin:round;stroke-miterlimit:1.5;">
    <g>
        <g transform="matrix(1.46342,0,0,1.46342,808.306,657.457)">
            <text x="98.534px" y="100.406px" style="font-family:'HarlowSolid', 'Harlow Solid Italic', fantasy;font-style:italic;font-stretch:semi-expanded;font-size:27.333px;fill:rgb(54,70,77);">Ulysses</text>
        </g>
        <g transform="matrix(1,0,0,1,-238.966,389.069)">
            <text x="260.161px" y="82.717px" style="font-family:'HarlowSolid', 'Harlow Solid Italic', fantasy;font-style:italic;font-stretch:semi-expanded;font-size:40px;fill:rgb(54,70,77);">purple</text>
        </g>
        <g transform="matrix(1,0,0,1,301.035,-36.3103)">
            <text x="184.126px" y="164.958px" style="font-family:'HarlowSolid', 'Harlow Solid Italic', fantasy;font-style:italic;font-stretch:semi-expanded;font-size:40px;fill:rgb(54,70,77);">Coconut</text>
        </g>
        <g transform="matrix(1,0,0,1,-41.8966,-356.897)">
            <text x="786.195px" y="830.648px" style="font-family:'HarlowSolid', 'Harlow Solid Italic', fantasy;font-style:italic;font-stretch:semi-expanded;font-size:40px;fill:rgb(54,70,77);">Alexander the Great</text>
        </g>
        <g transform="matrix(1,0,0,1,35.6896,-90)">
            <text x="139.126px" y="267.372px" style="font-family:'HarlowSolid', 'Harlow Solid Italic', fantasy;font-style:italic;font-stretch:semi-expanded;font-size:40px;fill:rgb(54,70,77);">Elton John</text>
        </g>
        <g transform="matrix(1,0,0,1,-927.034,-256.034)">
            <text x="927.402px" y="484.613px" style="font-family:'HarlowSolid', 'Harlow Solid Italic', fantasy;font-style:italic;font-stretch:semi-expanded;font-size:40px;fill:rgb(54,70,77);">whiskey</text>
        </g>
        <g transform="matrix(1,0,0,1,18.4137,1.82758)">
            <text x="615.506px" y="126.698px" style="font-family:'FreestyleScript-Regular', 'Freestyle Script', cursive;font-size:48px;fill:rgb(54,70,77);">Aloe vera</text>
        </g>
        <g transform="matrix(1,0,0,1,-588.31,746.655)">
            <text x="615.506px" y="126.698px" style="font-family:'FreestyleScript-Regular', 'Freestyle Script', cursive;font-size:48px;fill:rgb(54,70,77);">Aloe vera</text>
        </g>
        <g transform="matrix(1,0,0,1,-246.724,-349.138)">
            <text x="284.988px" y="998.234px" style="font-family:'HarlowSolid', 'Harlow Solid Italic', fantasy;font-style:italic;font-stretch:semi-expanded;font-size:40px;fill:rgb(54,70,77);">karate</text>
        </g>
        <g transform="matrix(1,0,0,1,-52.7586,-424.621)">
            <text x="904.126px" y="753.061px" style="font-family:'HarlowSolid', 'Harlow Solid Italic', fantasy;font-style:italic;font-stretch:semi-expanded;font-size:40px;fill:rgb(54,70,77);">Nepal</text>
        </g>
        <g transform="matrix(1,0,0,1,-800.69,217.793)">
            <text x="904.126px" y="753.061px" style="font-family:'HarlowSolid', 'Harlow Solid Italic', fantasy;font-style:italic;font-stretch:semi-expanded;font-size:40px;fill:rgb(54,70,77);">Nepal</text>
        </g>
        <g transform="matrix(1,0,0,1,-613.172,-329.552)">
            <text x="617.057px" y="1016.85px" style="font-family:'LucidaHandwriting-Italic', 'Lucida Handwriting', cursive;font-style:italic;font-size:30px;fill:rgb(54,70,77);">xoloitzcuintle</text>
        </g>
        <g transform="matrix(1,0,0,1,-67.0345,-478.138)">
            <text x="66.195px" y="906.682px" style="font-family:'LucidaHandwriting-Italic', 'Lucida Handwriting', cursive;font-style:italic;font-size:30px;fill:rgb(54,70,77);">Pinocchio</text>
        </g>
        <g transform="matrix(1,0,0,1,-71.3793,-138.862)">
            <text x="932.057px" y="267.372px" style="font-family:'LucidaHandwriting-Italic', 'Lucida Handwriting', cursive;font-style:italic;font-size:30px;fill:rgb(54,70,77);">quinoa</text>
        </g>
        <g transform="matrix(1,0,0,1,-135.483,584.241)">
            <text x="932.057px" y="267.372px" style="font-family:'LucidaHandwriting-Italic', 'Lucida Handwriting', cursive;font-style:italic;font-size:30px;fill:rgb(54,70,77);">quinoa</text>
        </g>
        <g transform="matrix(1,0,0,1,-100,-6.07952)">
            <text x="576.713px" y="82.717px" style="font-family:'LucidaHandwriting-Italic', 'Lucida Handwriting', cursive;font-style:italic;font-size:30px;fill:rgb(54,70,77);">Serpiente</text>
        </g>
        <g transform="matrix(1,0,0,1,-166.724,931.61)">
            <text x="576.713px" y="82.717px" style="font-family:'LucidaHandwriting-Italic', 'Lucida Handwriting', cursive;font-style:italic;font-size:30px;fill:rgb(54,70,77);">Serpiente</text>
        </g>
        <g transform="matrix(1,0,0,1,68.2759,-313.448)">
            <text x="27.402px" y="594.786px" style="font-family:'LucidaHandwriting-Italic', 'Lucida Handwriting', cursive;font-style:italic;font-size:30px;fill:rgb(54,70,77);">Goofy</text>
        </g>
        <g transform="matrix(1,0,0,1,189.31,-403.448)">
            <text x="798.609px" y="835.303px" style="font-family:'LucidaHandwriting-Italic', 'Lucida Handwriting', cursive;font-style:italic;font-size:30px;fill:rgb(54,70,77);">Oboe</text>
        </g>
        <g transform="matrix(1,0,0,1,-37.2414,-386.379)">
            <text x="46.023px" y="717.372px" style="font-family:'Pristina-Regular', 'Pristina', cursive;font-size:44px;fill:rgb(54,70,77);">Ernest Hemingway</text>
        </g>
        <g transform="matrix(1,0,0,1,550.862,299.724)">
            <text x="46.023px" y="717.372px" style="font-family:'Pristina-Regular', 'Pristina', cursive;font-size:44px;fill:rgb(54,70,77);">Ernest Hemingway</text>
        </g>
        <g transform="matrix(1,0,0,1,77.0345,-37.4483)">
            <text x="69.299px" y="168.061px" style="font-family:'Pristina-Regular', 'Pristina', cursive;font-size:44px;fill:rgb(54,70,77);">We will rock you</text>
        </g>
        <g transform="matrix(1,0,0,1,-145.862,-341.276)">
            <text x="933.609px" y="614.958px" style="font-family:'Pristina-Regular', 'Pristina', cursive;font-size:44px;fill:rgb(54,70,77);">Bordeaux</text>
        </g>
        <g transform="matrix(1,0,0,1,-415.862,353.897)">
            <text x="933.609px" y="614.958px" style="font-family:'Pristina-Regular', 'Pristina', cursive;font-size:44px;fill:rgb(54,70,77);">Bordeaux</text>
        </g>
        <g transform="matrix(1,0,0,1,862.759,-441.69)">
            <text x="81.713px" y="1012.2px" style="font-family:'Pristina-Regular', 'Pristina', cursive;font-size:44px;fill:rgb(54,70,77);">Jaipur</text>
        </g>
        <g transform="matrix(1,0,0,1,754.793,-168.276)">
            <text x="44.471px" y="397.717px" style="font-family:'Pristina-Regular', 'Pristina', cursive;font-size:44px;fill:rgb(54,70,77);">marimba</text>
        </g>
        <g transform="matrix(1,0,0,1,-166.897,-28.3488)">
            <text x="322.23px" y="112.199px" style="font-family:'Pristina-Regular', 'Pristina', cursive;font-size:44px;fill:rgb(54,70,77);">Castoro</text>
        </g>
        <g transform="matrix(1,0,0,1,-122.414,-119.793)">
            <text x="904.126px" y="200.648px" style="font-family:'Pristina-Regular', 'Pristina', cursive;font-size:44px;fill:rgb(54,70,77);">Kimono</text>
        </g>
        <g transform="matrix(1,0,0,1,-344.931,-194.414)">
            <text x="435.506px" y="976.51px" style="font-family:'Pristina-Regular', 'Pristina', cursive;font-size:44px;fill:rgb(54,70,77);">Tevere</text>
        </g>
        <g transform="matrix(1,0,0,1,-105,1.59252)">
            <text x="416.885px" y="29.958px" style="font-family:'Pristina-Regular', 'Pristina', cursive;font-size:44px;fill:rgb(54,70,77);">Lorenzo</text>
        </g>
        <g transform="matrix(1,0,0,1,348.103,876.765)">
            <text x="416.885px" y="29.958px" style="font-family:'Pristina-Regular', 'Pristina', cursive;font-size:44px;fill:rgb(54,70,77);">Lorenzo</text>
        </g>
        <g transform="matrix(1,0,0,1,59.6206,490.69)">
            <text x="922.747px" y="416.337px" style="font-family:'Pristina-Regular', 'Pristina', cursive;font-size:44px;fill:rgb(54,70,77);">Lego</text>
        </g>
        <g transform="matrix(1,0,0,1,-799.138,-395.896)">
            <text x="809.471px" y="957.889px" style="font-family:'Pristina-Regular', 'Pristina', cursive;font-size:44px;fill:rgb(54,70,77);">Priscilla</text>
        </g>
        <g transform="matrix(1,0,0,1,-572.586,13.9655)">
            <text x="809.471px" y="957.889px" style="font-family:'Pristina-Regular', 'Pristina', cursive;font-size:44px;fill:rgb(54,70,77);">Priscilla</text>
        </g>
        <g transform="matrix(1,0,0,1,-152.069,-127.034)">
            <text x="876.195px" y="306.165px" style="font-family:'VladimirScript', 'Vladimir Script', cursive;font-size:48px;fill:rgb(54,70,77);">Narciso</text>
        </g>
        <g transform="matrix(1,0,0,1,-616.034,710.896)">
            <text x="876.195px" y="306.165px" style="font-family:'VladimirScript', 'Vladimir Script', cursive;font-size:48px;fill:rgb(54,70,77);">Narciso</text>
        </g>
        <g transform="matrix(1,0,0,1,540,-271.08)">
            <text x="367.23px" y="1033.92px" style="font-family:'VladimirScript', 'Vladimir Script', cursive;font-size:48px;fill:rgb(54,70,77);">Danubio</text>
        </g>
        <g transform="matrix(1,0,0,1,-43.7931,-376.483)">
            <text x="58.437px" y="758.188px" style="font-family:'VladimirScript', 'Vladimir Script', cursive;font-size:48px;fill:rgb(54,70,77);">Burrito</text>
        </g>
        <g transform="matrix(1,0,0,1,215.345,303.399)">
            <text x="58.437px" y="758.188px" style="font-family:'VladimirScript', 'Vladimir Script', cursive;font-size:48px;fill:rgb(54,70,77);">Burrito</text>
        </g>
        <g transform="matrix(1,0,0,1,-134.655,-20.7711)">
            <text x="772.23px" y="101.809px" style="font-family:'VladimirScript', 'Vladimir Script', cursive;font-size:48px;fill:rgb(54,70,77);">Xilofono</text>
        </g>
        <g transform="matrix(1,0,0,1,161.724,750.884)">
            <text x="772.23px" y="101.809px" style="font-family:'VladimirScript', 'Vladimir Script', cursive;font-size:48px;fill:rgb(54,70,77);">Xilofono</text>
        </g>
        <g transform="matrix(1,0,0,1,921.276,346.863)">
            <text x="35.161px" y="36.636px" style="font-family:'VladimirScript', 'Vladimir Script', cursive;font-size:48px;fill:rgb(54,70,77);">Gelato</text>
        </g>
        <g transform="matrix(1,0,0,1,-139.655,-335.69)">
            <text x="137.575px" y="939.74px" style="font-family:'VladimirScript', 'Vladimir Script', cursive;font-size:48px;fill:rgb(54,70,77);">Nirvana</text>
        </g>
        <g transform="matrix(1,0,0,1,55.8621,23.0238)">
            <text x="27.402px" y="492.843px" style="font-family:'VladimirScript', 'Vladimir Script', cursive;font-size:48px;fill:rgb(54,70,77);">ukulele</text>
        </g>
        <g transform="matrix(1,0,0,1,659.483,473.024)">
            <text x="27.402px" y="492.843px" style="font-family:'VladimirScript', 'Vladimir Script', cursive;font-size:48px;fill:rgb(54,70,77);">ukulele</text>
        </g>
        <g transform="matrix(1,0,0,1,-20.1724,-129.793)">
            <text x="35.161px" y="309.74px" style="font-family:'VladimirScript', 'Vladimir Script', cursive;font-size:48px;fill:rgb(54,70,77);">Hercules</text>
        </g>
        <g transform="matrix(1,0,0,1,328.965,663.138)">
            <text x="35.161px" y="309.74px" style="font-family:'VladimirScript', 'Vladimir Script', cursive;font-size:48px;fill:rgb(54,70,77);">Hercules</text>
        </g>
        <g transform="matrix(1,0,0,1,-210,10)">
            <text x="652.747px" y="24.222px" style="font-family:'VladimirScript', 'Vladimir Script', cursive;font-size:48px;fill:rgb(54,70,77);">Mickey Mouse</text>
        </g>
        <g transform="matrix(1,0,0,1,69.2414,-379.828)">
            <text x="829.644px" y="1048.36px" style="font-family:'VladimirScript', 'Vladimir Script', cursive;font-size:48px;fill:rgb(54,70,77);">Tesla</text>
        </g>
        <g transform="matrix(1,0,0,1,459.31,416.176)">
            <text x="388.954px" y="106.464px" style="font-family:'VladimirScript', 'Vladimir Script', cursive;font-size:48px;fill:rgb(54,70,77);">Torre di Pisa</text>
        </g>
        <g transform="matrix(1,0,0,1,-35.6897,-280.862)">
            <text x="967.747px" y="555.226px" style="font-family:'VladimirScript', 'Vladimir Script', cursive;font-size:48px;fill:rgb(54,70,77);">Jumanjii</text>
        </g>
        <g transform="matrix(1,0,0,1,197.069,-302.586)">
            <text x="7.23px" y="536.606px" style="font-family:'VladimirScript', 'Vladimir Script', cursive;font-size:48px;fill:rgb(54,70,77);">Freddy</text>
            <text x="7.23px" y="584.606px" style="font-family:'VladimirScript', 'Vladimir Script', cursive;font-size:48px;fill:rgb(54,70,77);">Mercury</text>
        </g>
        <g transform="matrix(1,0,0,1,386.828,683.655)">
            <text x="437.057px" y="119.192px" style="font-family:'VladimirScript', 'Vladimir Script', cursive;font-size:48px;fill:rgb(54,70,77);">Cupido</text>
        </g>
        <g transform="matrix(1,0,0,1,-378.621,800.586)">
            <text x="437.057px" y="119.192px" style="font-family:'VladimirScript', 'Vladimir Script', cursive;font-size:48px;fill:rgb(54,70,77);">Cupido</text>
        </g>
        <g transform="matrix(1,0,0,1,4.65517,-87.6552)">
            <text x="769.126px" y="220.054px" style="font-family:'FreestyleScript-Regular', 'Freestyle Script', cursive;font-size:52px;fill:rgb(54,70,77);">Zorro</text>
        </g>
        <g transform="matrix(1,0,0,1,-759.517,564.517)">
            <text x="769.126px" y="220.054px" style="font-family:'FreestyleScript-Regular', 'Freestyle Script', cursive;font-size:52px;fill:rgb(54,70,77);">Zorro</text>
        </g>
        <g transform="matrix(1,0,0,1,810,-366.207)">
            <text x="196.54px" y="1033.16px" style="font-family:'FreestyleScript-Regular', 'Freestyle Script', cursive;font-size:48px;fill:rgb(54,70,77);">iguana</text>
        </g>
        <g transform="matrix(1,0,0,1,413.862,-321.621)">
            <text x="551.885px" y="1039.11px" style="font-family:'FreestyleScript-Regular', 'Freestyle Script', cursive;font-size:48px;fill:rgb(54,70,77);">Vivaldi</text>
        </g>
        <g transform="matrix(1,0,0,1,901.552,-219.655)">
            <text x="50.678px" y="452.56px" style="font-family:'FreestyleScript-Regular', 'Freestyle Script', cursive;font-size:48px;fill:rgb(54,70,77);">Isabel</text>
        </g>
        <g transform="matrix(1,0,0,1,165.172,-3.51725)">
            <text x="238.437px" y="134.457px" style="font-family:'FreestyleScript-Regular', 'Freestyle Script', cursive;font-size:48px;fill:rgb(54,70,77);">indigo</text>
        </g>
        <g transform="matrix(1,0,0,1,663.034,772.793)">
            <text x="238.437px" y="134.457px" style="font-family:'FreestyleScript-Regular', 'Freestyle Script', cursive;font-size:48px;fill:rgb(54,70,77);">indigo</text>
        </g>
        <g transform="matrix(1,0,0,1,-26.3793,-329.483)">
            <text x="36.713px" y="848.25px" style="font-family:'FreestyleScript-Regular', 'Freestyle Script', cursive;font-size:48px;fill:rgb(54,70,77);">naríz</text>
        </g>
        <g transform="matrix(1,0,0,1,52.2069,-459.241)">
            <text x="918.092px" y="786.181px" style="font-family:'FreestyleScript-Regular', 'Freestyle Script', cursive;font-size:48px;fill:rgb(54,70,77);">Zanahoria</text>
        </g>
        <g transform="matrix(1,0,0,1,-89,184.724)">
            <text x="918.092px" y="786.181px" style="font-family:'FreestyleScript-Regular', 'Freestyle Script', cursive;font-size:48px;fill:rgb(54,70,77);">Zanahoria</text>
        </g>
        <g transform="matrix(1,0,0,1,-12.4138,798.565)">
            <text x="185.678px" y="24.285px" style="font-family:'FreestyleScript-Regular', 'Freestyle Script', cursive;font-size:48px;fill:rgb(54,70,77);">Yosemite</text>
        </g>
        <g transform="matrix(1,0,0,1,-200,-19.7324)">
            <text x="914.988px" y="53.767px" style="font-family:'FreestyleScript-Regular', 'Freestyle Script', cursive;font-size:48px;fill:rgb(54,70,77);">Amarillo</text>
        </g>
        <g transform="matrix(1,0,0,1,-486.517,1009.28)">
            <text x="914.988px" y="53.767px" style="font-family:'FreestyleScript-Regular', 'Freestyle Script', cursive;font-size:48px;fill:rgb(54,70,77);">Amarillo</text>
        </g>
        <g transform="matrix(1,0,0,1,69.8276,-115.276)">
            <text x="59.988px" y="348.595px" style="font-family:'FreestyleScript-Regular', 'Freestyle Script', cursive;font-size:48px;fill:rgb(54,70,77);">aquila</text>
        </g>
        <g transform="matrix(1,0,0,1,131.897,573.69)">
            <text x="59.988px" y="348.595px" style="font-family:'FreestyleScript-Regular', 'Freestyle Script', cursive;font-size:48px;fill:rgb(54,70,77);">aquila</text>
        </g>
        <g transform="matrix(1,0,0,1,-614.483,-318.103)">
            <text x="651.195px" y="1053.08px" style="font-family:'FreestyleScript-Regular', 'Freestyle Script', cursive;font-size:48px;fill:rgb(54,70,77);">cappuccino</text>
        </g>
        <g transform="matrix(1,0,0,1,24.069,-92.7241)">
            <text x="21.195px" y="221.354px" style="font-family:'FreestyleScript-Regular', 'Freestyle Script', cursive;font-size:48px;fill:rgb(54,70,77);">hibiscus</text>
        </g>
        <g transform="matrix(1,0,0,1,145.103,653.655)">
            <text x="21.195px" y="221.354px" style="font-family:'FreestyleScript-Regular', 'Freestyle Script', cursive;font-size:48px;fill:rgb(54,70,77);">hibiscus</text>
        </g>
        <g transform="matrix(1,0,0,1,-941.896,-348.138)">
            <text x="946.023px" y="629.457px" style="font-family:'FreestyleScript-Regular', 'Freestyle Script', cursive;font-size:48px;fill:rgb(54,70,77);">Bingo!</text>
        </g>
        <g transform="matrix(1,0,0,1,682.655,-428.31)">
            <text x="235.333px" y="860.664px" style="font-family:'FreestyleScript-Regular', 'Freestyle Script', cursive;font-size:48px;fill:rgb(54,70,77);">jirafa</text>
        </g>
        <g transform="matrix(1,0,0,1,69.8276,-372.414)">
            <text x="918.092px" y="997.216px" style="font-family:'FreestyleScript-Regular', 'Freestyle Script', cursive;font-size:48px;fill:rgb(54,70,77);">Mohito</text>
        </g>
        <g transform="matrix(1,0,0,1,-156,13)">
            <text x="440.161px" y="72.388px" style="font-family:'FreestyleScript-Regular', 'Freestyle Script', cursive;font-size:48px;fill:rgb(54,70,77);">kiwi</text>
        </g>
        <g transform="matrix(1,0,0,1,-250.655,946.827)">
            <text x="440.161px" y="72.388px" style="font-family:'FreestyleScript-Regular', 'Freestyle Script', cursive;font-size:48px;fill:rgb(54,70,77);">kiwi</text>
        </g>
        <g transform="matrix(1,0,0,1,-111,-8.55725)">
            <text x="468.092px" y="89.457px" style="font-family:'HarlowSolid', 'Harlow Solid Italic', fantasy;font-style:italic;font-stretch:semi-expanded;font-size:40px;fill:rgb(54,70,77);">Rome</text>
        </g>
        <g transform="matrix(1,0,0,1,-199.448,829.374)">
            <text x="468.092px" y="89.457px" style="font-family:'HarlowSolid', 'Harlow Solid Italic', fantasy;font-style:italic;font-stretch:semi-expanded;font-size:40px;fill:rgb(54,70,77);">Rome</text>
        </g>
        <g transform="matrix(1,0,0,1,-893.621,740.437)">
            <text x="925.85px" y="78.595px" style="font-family:'HarlowSolid', 'Harlow Solid Italic', fantasy;font-style:italic;font-stretch:semi-expanded;font-size:40px;fill:rgb(54,70,77);">penguin</text>
        </g>
        <g transform="matrix(1,0,0,1,51.1035,-238.172)">
            <text x="811.023px" y="415.319px" style="font-family:'HarlowSolid', 'Harlow Solid Italic', fantasy;font-style:italic;font-stretch:semi-expanded;font-size:40px;fill:rgb(54,70,77);">Animal crossing</text>
        </g>
        <g transform="matrix(1,0,0,1,-4,1)">
            <text x="561.195px" y="1055.42px" style="font-family:'HarlowSolid', 'Harlow Solid Italic', fantasy;font-style:italic;font-stretch:semi-expanded;font-size:40px;fill:rgb(54,70,77);">P<tspan x="590.573px 606.065px 622.884px 638.591px 654.082px 660.882px 675.045px 687.744px 703.235px " y="1055.42px 1055.42px 1055.42px 1055.42px 1055.42px 1055.42px 1055.42px 1055.42px 1055.42px ">anda bear</tspan></text>
        </g>
    </g>
    <g id="Logo">
        <g transform="matrix(1.15379,-0.477917,0.482574,1.16504,-310.027,186.802)">
            <path d="M520.603,188.534L752.669,284.659L848.793,516.724L752.669,748.789L520.603,844.914L288.538,748.789L192.414,516.724L288.538,284.659L520.603,188.534Z" style="fill:rgb(251,76,45);stroke:rgb(107,118,138);stroke-width:10.99px;"/>
        </g>
        <g transform="matrix(1.087,-0.450252,0.454639,1.0976,-260.821,207.248)">
            <path d="M520.603,188.534L752.669,284.659L848.793,516.724L752.669,748.789L520.603,844.914L288.538,748.789L192.414,516.724L288.538,284.659L520.603,188.534Z" style="fill:none;stroke:rgb(241,227,210);stroke-width:29.01px;"/>
        </g>
        <g id="Name" transform="matrix(1,1.11022e-16,0,1,0,54.1382)">
            <g transform="matrix(1,0,0,1,-78.4397,-71.3793)">
                <text x="328.19px" y="627.992px" style="font-family:'AgencyFB-Reg', 'Agency FB', sans-serif;font-stretch:condensed;font-size:288px;fill:rgb(107,118,138);stroke:rgb(241,227,210);stroke-width:3.19px;stroke-linecap:butt;stroke-miterlimit:2;">BASTA</text>
            </g>
            <g transform="matrix(1,0,0,1,29.4828,0)">
                <text x="238.19px" y="623.746px" style="font-family:'Helvetica-Bold', 'Helvetica';font-weight:700;font-size:48px;fill:rgb(241,227,210);">NAMES THINGS CITIES</text>
            </g>
        </g>
    </g>
</svg>
