<?xml version="1.0" encoding="UTF-8" standalone="no"?>
<!DOCTYPE svg PUBLIC "-//W3C//DTD SVG 1.1//EN" "http://www.w3.org/Graphics/SVG/1.1/DTD/svg11.dtd">
<svg width="100%" height="100%" viewBox="0 0 600 600" version="1.1" xmlns="http://www.w3.org/2000/svg" xmlns:xlink="http://www.w3.org/1999/xlink" xml:space="preserve" xmlns:serif="http://www.serif.com/" style="fill-rule:evenodd;clip-rule:evenodd;stroke-linecap:round;stroke-linejoin:round;stroke-miterlimit:1.5;">
    <g id="Logo" transform="matrix(0.671711,0,0,0.671711,-62.7241,-61.5795)">
        <g transform="matrix(1.15379,-0.477917,0.482574,1.16504,-310.027,185.098)">
            <g id="Stopsign">
                <path d="M520.603,188.534L752.669,284.659L848.793,516.724L752.669,748.789L520.603,844.914L288.538,748.789L192.414,516.724L288.538,284.659L520.603,188.534Z" style="fill:rgb(251,76,45);stroke:rgb(241,227,210);stroke-width:47.13px;"/>
            </g>
        </g>
        <g transform="matrix(1,1.11022e-16,0,1,-78.4397,22.3279)">
            <g id="Name">
                <path d="M433.94,612.383C433.94,616.977 432.487,620.727 429.58,623.633C426.674,626.539 422.924,627.992 418.33,627.992L345.768,627.992L345.768,407.914L417.768,407.914C422.362,407.914 426.112,409.367 429.018,412.274C431.924,415.18 433.377,418.93 433.377,423.524L433.377,488.914C433.377,494.727 430.752,499.602 425.502,503.539C420.346,506.633 415.19,509.727 410.033,512.821L426.627,523.508C431.502,526.508 433.94,531.196 433.94,537.571L433.94,612.383ZM413.69,491.446L413.69,425.211L365.315,425.211L365.315,504.664L394.143,504.664L413.69,491.446ZM414.252,610.696L414.252,534.617L394.424,521.68L365.315,521.68L365.315,610.696L414.252,610.696Z" style="fill:rgb(107,118,138);fill-rule:nonzero;stroke:rgb(241,227,210);stroke-width:4.75px;stroke-linecap:butt;stroke-miterlimit:2;"/>
                <path d="M556.846,627.992L537.44,627.992L529.705,579.055L485.971,579.055L478.237,627.992L459.393,627.992L459.393,627.43L498.627,407.352L517.893,407.352L556.846,627.992ZM527.174,561.758L507.908,442.508L488.502,561.758L527.174,561.758Z" style="fill:rgb(107,118,138);fill-rule:nonzero;stroke:rgb(241,227,210);stroke-width:4.75px;stroke-linecap:butt;stroke-miterlimit:2;"/>
                <path d="M669.065,612.383C669.065,616.977 667.635,620.727 664.776,623.633C661.916,626.539 658.19,627.992 653.596,627.992L598.19,627.992C593.596,627.992 589.822,626.539 586.869,623.633C583.916,620.727 582.44,616.977 582.44,612.383L582.44,556.555L601.987,556.555L601.987,610.696L649.518,610.696L649.518,558.242L588.768,484.836C584.549,479.774 582.44,474.196 582.44,468.102L582.44,423.524C582.44,418.93 583.916,415.18 586.869,412.274C589.822,409.367 593.596,407.914 598.19,407.914L653.596,407.914C658.19,407.914 661.916,409.367 664.776,412.274C667.635,415.18 669.065,418.93 669.065,423.524L669.065,474.711L649.518,474.711L649.518,425.211L601.987,425.211L601.987,471.617L663.018,545.024C667.049,549.899 669.065,555.383 669.065,561.477L669.065,612.383Z" style="fill:rgb(107,118,138);fill-rule:nonzero;stroke:rgb(241,227,210);stroke-width:4.75px;stroke-linecap:butt;stroke-miterlimit:2;"/>
                <path d="M779.455,425.211L745.424,425.211L745.424,627.992L725.877,627.992L725.877,425.211L691.565,425.211L691.565,407.914L779.455,407.914L779.455,425.211Z" style="fill:rgb(107,118,138);fill-rule:nonzero;stroke:rgb(241,227,210);stroke-width:4.75px;stroke-linecap:butt;stroke-miterlimit:2;"/>
                <path d="M891.112,627.992L871.705,627.992L863.971,579.055L820.237,579.055L812.502,627.992L793.658,627.992L793.658,627.43L832.893,407.352L852.158,407.352L891.112,627.992ZM861.44,561.758L842.174,442.508L822.768,561.758L861.44,561.758Z" style="fill:rgb(107,118,138);fill-rule:nonzero;stroke:rgb(241,227,210);stroke-width:4.75px;stroke-linecap:butt;stroke-miterlimit:2;"/>
            </g>
        </g>
    </g>
</svg>
