<?xml version="1.0" encoding="UTF-8" standalone="no"?>
<!DOCTYPE svg PUBLIC "-//W3C//DTD SVG 1.1//EN" "http://www.w3.org/Graphics/SVG/1.1/DTD/svg11.dtd">
<svg width="100%" height="100%" viewBox="0 0 1080 1080" version="1.1" xmlns="http://www.w3.org/2000/svg" xmlns:xlink="http://www.w3.org/1999/xlink" xml:space="preserve" xmlns:serif="http://www.serif.com/" style="fill-rule:evenodd;clip-rule:evenodd;stroke-linecap:round;stroke-linejoin:round;stroke-miterlimit:1.5;">
    <g id="Logo" transform="matrix(1.11057,0,0,1.11057,-59.7078,-59.7078)">
        <g id="Stopsign">
            <g transform="matrix(1.15379,-0.477917,0.482574,1.16504,-310.027,186.802)">
                <path d="M520.603,188.534L752.669,284.659L848.793,516.724L752.669,748.789L520.603,844.914L288.538,748.789L192.414,516.724L288.538,284.659L520.603,188.534Z" style="fill:rgb(251,76,45);stroke:rgb(107,118,138);stroke-width:9.89px;"/>
            </g>
            <g transform="matrix(1.09364,-0.453001,0.45463,1.09757,-264.272,208.691)">
                <path d="M520.603,188.534L752.669,284.659L848.793,516.724L752.669,748.789L520.603,844.914L288.538,748.789L192.414,516.724L288.538,284.659L520.603,188.534Z" style="fill:none;stroke:rgb(241,227,210);stroke-width:26.05px;"/>
            </g>
        </g>
        <g id="Name" transform="matrix(1,1.11022e-16,0,1,0,54.1382)">
            <g transform="matrix(1,0,0,1,-78.4397,-71.3793)">
                <path d="M433.94,612.383C433.94,616.977 432.487,620.727 429.58,623.633C426.674,626.539 422.924,627.992 418.33,627.992L345.768,627.992L345.768,407.914L417.768,407.914C422.362,407.914 426.112,409.367 429.018,412.274C431.924,415.18 433.377,418.93 433.377,423.524L433.377,488.914C433.377,494.727 430.752,499.602 425.502,503.539C420.346,506.633 415.19,509.727 410.033,512.821L426.627,523.508C431.502,526.508 433.94,531.196 433.94,537.571L433.94,612.383ZM413.69,491.446L413.69,425.211L365.315,425.211L365.315,504.664L394.143,504.664L413.69,491.446ZM414.252,610.696L414.252,534.617L394.424,521.68L365.315,521.68L365.315,610.696L414.252,610.696Z" style="fill:rgb(107,118,138);fill-rule:nonzero;stroke:rgb(241,227,210);stroke-width:2.88px;stroke-linecap:butt;stroke-miterlimit:2;"/>
                <path d="M556.846,627.992L537.44,627.992L529.705,579.055L485.971,579.055L478.237,627.992L459.393,627.992L459.393,627.43L498.627,407.352L517.893,407.352L556.846,627.992ZM527.174,561.758L507.908,442.508L488.502,561.758L527.174,561.758Z" style="fill:rgb(107,118,138);fill-rule:nonzero;stroke:rgb(241,227,210);stroke-width:2.88px;stroke-linecap:butt;stroke-miterlimit:2;"/>
                <path d="M669.065,612.383C669.065,616.977 667.635,620.727 664.776,623.633C661.916,626.539 658.19,627.992 653.596,627.992L598.19,627.992C593.596,627.992 589.822,626.539 586.869,623.633C583.916,620.727 582.44,616.977 582.44,612.383L582.44,556.555L601.987,556.555L601.987,610.696L649.518,610.696L649.518,558.242L588.768,484.836C584.549,479.774 582.44,474.196 582.44,468.102L582.44,423.524C582.44,418.93 583.916,415.18 586.869,412.274C589.822,409.367 593.596,407.914 598.19,407.914L653.596,407.914C658.19,407.914 661.916,409.367 664.776,412.274C667.635,415.18 669.065,418.93 669.065,423.524L669.065,474.711L649.518,474.711L649.518,425.211L601.987,425.211L601.987,471.617L663.018,545.024C667.049,549.899 669.065,555.383 669.065,561.477L669.065,612.383Z" style="fill:rgb(107,118,138);fill-rule:nonzero;stroke:rgb(241,227,210);stroke-width:2.88px;stroke-linecap:butt;stroke-miterlimit:2;"/>
                <path d="M779.455,425.211L745.424,425.211L745.424,627.992L725.877,627.992L725.877,425.211L691.565,425.211L691.565,407.914L779.455,407.914L779.455,425.211Z" style="fill:rgb(107,118,138);fill-rule:nonzero;stroke:rgb(241,227,210);stroke-width:2.88px;stroke-linecap:butt;stroke-miterlimit:2;"/>
                <path d="M891.112,627.992L871.705,627.992L863.971,579.055L820.237,579.055L812.502,627.992L793.658,627.992L793.658,627.43L832.893,407.352L852.158,407.352L891.112,627.992ZM861.44,561.758L842.174,442.508L822.768,561.758L861.44,561.758Z" style="fill:rgb(107,118,138);fill-rule:nonzero;stroke:rgb(241,227,210);stroke-width:2.88px;stroke-linecap:butt;stroke-miterlimit:2;"/>
            </g>
            <g transform="matrix(0.900439,0,0,0.900439,53.1973,58.6616)">
                <g transform="matrix(48,0,0,48,238.19,623.746)">
                    <path d="M0.074,-0.72L0.231,-0.72L0.517,-0.218L0.517,-0.72L0.657,-0.72L0.657,0L0.507,0L0.214,-0.511L0.214,0L0.074,0L0.074,-0.72Z" style="fill:rgb(241,227,210);fill-rule:nonzero;"/>
                </g>
                <g transform="matrix(48,0,0,48,272.854,623.746)">
                    <path d="M0.272,-0.272L0.456,-0.272L0.365,-0.555L0.272,-0.272ZM0.282,-0.72L0.452,-0.72L0.707,0L0.544,0L0.496,-0.148L0.231,-0.148L0.182,0L0.025,0L0.282,-0.72Z" style="fill:rgb(241,227,210);fill-rule:nonzero;"/>
                </g>
                <g transform="matrix(48,0,0,48,307.518,623.746)">
                    <path d="M0.554,-0.72L0.77,-0.72L0.77,0L0.63,0L0.63,-0.487C0.63,-0.501 0.63,-0.52 0.63,-0.546C0.631,-0.571 0.631,-0.59 0.631,-0.604L0.494,0L0.348,0L0.213,-0.604C0.213,-0.59 0.213,-0.571 0.213,-0.546C0.214,-0.52 0.214,-0.501 0.214,-0.487L0.214,0L0.074,0L0.074,-0.72L0.293,-0.72L0.424,-0.154L0.554,-0.72Z" style="fill:rgb(241,227,210);fill-rule:nonzero;"/>
                </g>
                <g transform="matrix(48,0,0,48,347.502,623.746)">
                    <path d="M0.608,-0.592L0.228,-0.592L0.228,-0.439L0.577,-0.439L0.577,-0.314L0.228,-0.314L0.228,-0.129L0.626,-0.129L0.626,0L0.081,0L0.081,-0.72L0.608,-0.72L0.608,-0.592Z" style="fill:rgb(241,227,210);fill-rule:nonzero;"/>
                </g>
                <g transform="matrix(48,0,0,48,379.518,623.746)">
                    <path d="M0.185,-0.222C0.189,-0.189 0.198,-0.165 0.212,-0.148C0.237,-0.119 0.28,-0.104 0.34,-0.104C0.376,-0.104 0.406,-0.108 0.428,-0.116C0.471,-0.131 0.493,-0.159 0.493,-0.199C0.493,-0.223 0.482,-0.241 0.461,-0.254C0.44,-0.267 0.407,-0.278 0.361,-0.288L0.283,-0.305C0.207,-0.322 0.154,-0.34 0.125,-0.36C0.077,-0.394 0.053,-0.445 0.053,-0.516C0.053,-0.581 0.076,-0.634 0.124,-0.677C0.171,-0.719 0.241,-0.741 0.333,-0.741C0.41,-0.741 0.475,-0.721 0.529,-0.68C0.584,-0.64 0.612,-0.582 0.615,-0.505L0.47,-0.505C0.468,-0.549 0.448,-0.579 0.412,-0.598C0.388,-0.61 0.358,-0.616 0.323,-0.616C0.283,-0.616 0.251,-0.608 0.227,-0.592C0.204,-0.577 0.192,-0.555 0.192,-0.527C0.192,-0.501 0.204,-0.482 0.227,-0.469C0.242,-0.461 0.274,-0.451 0.323,-0.439L0.449,-0.41C0.504,-0.397 0.546,-0.379 0.573,-0.357C0.616,-0.324 0.638,-0.275 0.638,-0.21C0.638,-0.145 0.612,-0.09 0.561,-0.047C0.511,-0.003 0.439,0.019 0.346,0.019C0.251,0.019 0.177,-0.003 0.122,-0.046C0.068,-0.088 0.041,-0.147 0.041,-0.222L0.185,-0.222Z" style="fill:rgb(241,227,210);fill-rule:nonzero;"/>
                </g>
                <g transform="matrix(48,0,0,48,424.869,623.746)">
                    <path d="M0.599,-0.72L0.599,-0.592L0.384,-0.592L0.384,0L0.232,0L0.232,-0.592L0.016,-0.592L0.016,-0.72L0.599,-0.72Z" style="fill:rgb(241,227,210);fill-rule:nonzero;"/>
                </g>
                <g transform="matrix(48,0,0,48,454.19,623.746)">
                    <path d="M0.075,0L0.075,-0.72L0.225,-0.72L0.225,-0.445L0.504,-0.445L0.504,-0.72L0.654,-0.72L0.654,0L0.504,0L0.504,-0.321L0.225,-0.321L0.225,0L0.075,0Z" style="fill:rgb(241,227,210);fill-rule:nonzero;"/>
                </g>
                <g transform="matrix(48,0,0,48,488.854,623.746)">
                    <rect x="0.064" y="-0.72" width="0.149" height="0.72" style="fill:rgb(241,227,210);fill-rule:nonzero;"/>
                </g>
                <g transform="matrix(48,0,0,48,502.19,623.746)">
                    <path d="M0.074,-0.72L0.231,-0.72L0.517,-0.218L0.517,-0.72L0.657,-0.72L0.657,0L0.507,0L0.214,-0.511L0.214,0L0.074,0L0.074,-0.72Z" style="fill:rgb(241,227,210);fill-rule:nonzero;"/>
                </g>
                <g transform="matrix(48,0,0,48,536.854,623.746)">
                    <path d="M0.56,-0.495C0.549,-0.544 0.521,-0.579 0.477,-0.598C0.452,-0.609 0.424,-0.614 0.394,-0.614C0.336,-0.614 0.288,-0.592 0.251,-0.549C0.214,-0.505 0.195,-0.439 0.195,-0.352C0.195,-0.263 0.215,-0.201 0.256,-0.164C0.296,-0.127 0.342,-0.109 0.394,-0.109C0.444,-0.109 0.485,-0.123 0.518,-0.152C0.55,-0.181 0.57,-0.219 0.577,-0.266L0.411,-0.266L0.411,-0.386L0.71,-0.386L0.71,0L0.611,0L0.596,-0.09C0.567,-0.056 0.541,-0.032 0.518,-0.018C0.478,0.006 0.429,0.019 0.371,0.019C0.276,0.019 0.198,-0.014 0.137,-0.081C0.073,-0.147 0.042,-0.238 0.042,-0.353C0.042,-0.469 0.074,-0.563 0.138,-0.633C0.202,-0.703 0.287,-0.738 0.392,-0.738C0.484,-0.738 0.557,-0.715 0.613,-0.669C0.668,-0.622 0.7,-0.564 0.708,-0.495L0.56,-0.495Z" style="fill:rgb(241,227,210);fill-rule:nonzero;"/>
                </g>
                <g transform="matrix(48,0,0,48,574.19,623.746)">
                    <path d="M0.185,-0.222C0.189,-0.189 0.198,-0.165 0.212,-0.148C0.237,-0.119 0.28,-0.104 0.34,-0.104C0.376,-0.104 0.406,-0.108 0.428,-0.116C0.471,-0.131 0.493,-0.159 0.493,-0.199C0.493,-0.223 0.482,-0.241 0.461,-0.254C0.44,-0.267 0.407,-0.278 0.361,-0.288L0.283,-0.305C0.207,-0.322 0.154,-0.34 0.125,-0.36C0.077,-0.394 0.053,-0.445 0.053,-0.516C0.053,-0.581 0.076,-0.634 0.124,-0.677C0.171,-0.719 0.241,-0.741 0.333,-0.741C0.41,-0.741 0.475,-0.721 0.529,-0.68C0.584,-0.64 0.612,-0.582 0.615,-0.505L0.47,-0.505C0.468,-0.549 0.448,-0.579 0.412,-0.598C0.388,-0.61 0.358,-0.616 0.323,-0.616C0.283,-0.616 0.251,-0.608 0.227,-0.592C0.204,-0.577 0.192,-0.555 0.192,-0.527C0.192,-0.501 0.204,-0.482 0.227,-0.469C0.242,-0.461 0.274,-0.451 0.323,-0.439L0.449,-0.41C0.504,-0.397 0.546,-0.379 0.573,-0.357C0.616,-0.324 0.638,-0.275 0.638,-0.21C0.638,-0.145 0.612,-0.09 0.561,-0.047C0.511,-0.003 0.439,0.019 0.346,0.019C0.251,0.019 0.177,-0.003 0.122,-0.046C0.068,-0.088 0.041,-0.147 0.041,-0.222L0.185,-0.222Z" style="fill:rgb(241,227,210);fill-rule:nonzero;"/>
                </g>
                <g transform="matrix(48,0,0,48,619.541,623.746)">
                    <path d="M0.045,-0.354C0.045,-0.48 0.078,-0.576 0.145,-0.645C0.203,-0.704 0.277,-0.733 0.366,-0.733C0.486,-0.733 0.574,-0.694 0.629,-0.614C0.66,-0.57 0.676,-0.525 0.678,-0.48L0.528,-0.48C0.518,-0.514 0.506,-0.541 0.491,-0.558C0.464,-0.589 0.425,-0.605 0.372,-0.605C0.318,-0.605 0.276,-0.583 0.245,-0.539C0.214,-0.495 0.199,-0.432 0.199,-0.352C0.199,-0.271 0.215,-0.21 0.248,-0.17C0.28,-0.13 0.322,-0.11 0.372,-0.11C0.424,-0.11 0.463,-0.127 0.49,-0.162C0.505,-0.18 0.517,-0.208 0.527,-0.245L0.677,-0.245C0.664,-0.167 0.631,-0.103 0.578,-0.054C0.525,-0.005 0.457,0.02 0.374,0.02C0.272,0.02 0.191,-0.013 0.133,-0.08C0.074,-0.146 0.045,-0.238 0.045,-0.354Z" style="fill:rgb(241,227,210);fill-rule:nonzero;"/>
                </g>
                <g transform="matrix(48,0,0,48,654.205,623.746)">
                    <rect x="0.064" y="-0.72" width="0.149" height="0.72" style="fill:rgb(241,227,210);fill-rule:nonzero;"/>
                </g>
                <g transform="matrix(48,0,0,48,667.541,623.746)">
                    <path d="M0.599,-0.72L0.599,-0.592L0.384,-0.592L0.384,0L0.232,0L0.232,-0.592L0.016,-0.592L0.016,-0.72L0.599,-0.72Z" style="fill:rgb(241,227,210);fill-rule:nonzero;"/>
                </g>
                <g transform="matrix(48,0,0,48,696.862,623.746)">
                    <rect x="0.064" y="-0.72" width="0.149" height="0.72" style="fill:rgb(241,227,210);fill-rule:nonzero;"/>
                </g>
                <g transform="matrix(48,0,0,48,710.197,623.746)">
                    <path d="M0.608,-0.592L0.228,-0.592L0.228,-0.439L0.577,-0.439L0.577,-0.314L0.228,-0.314L0.228,-0.129L0.626,-0.129L0.626,0L0.081,0L0.081,-0.72L0.608,-0.72L0.608,-0.592Z" style="fill:rgb(241,227,210);fill-rule:nonzero;"/>
                </g>
                <g transform="matrix(48,0,0,48,742.213,623.746)">
                    <path d="M0.185,-0.222C0.189,-0.189 0.198,-0.165 0.212,-0.148C0.237,-0.119 0.28,-0.104 0.34,-0.104C0.376,-0.104 0.406,-0.108 0.428,-0.116C0.471,-0.131 0.493,-0.159 0.493,-0.199C0.493,-0.223 0.482,-0.241 0.461,-0.254C0.44,-0.267 0.407,-0.278 0.361,-0.288L0.283,-0.305C0.207,-0.322 0.154,-0.34 0.125,-0.36C0.077,-0.394 0.053,-0.445 0.053,-0.516C0.053,-0.581 0.076,-0.634 0.124,-0.677C0.171,-0.719 0.241,-0.741 0.333,-0.741C0.41,-0.741 0.475,-0.721 0.529,-0.68C0.584,-0.64 0.612,-0.582 0.615,-0.505L0.47,-0.505C0.468,-0.549 0.448,-0.579 0.412,-0.598C0.388,-0.61 0.358,-0.616 0.323,-0.616C0.283,-0.616 0.251,-0.608 0.227,-0.592C0.204,-0.577 0.192,-0.555 0.192,-0.527C0.192,-0.501 0.204,-0.482 0.227,-0.469C0.242,-0.461 0.274,-0.451 0.323,-0.439L0.449,-0.41C0.504,-0.397 0.546,-0.379 0.573,-0.357C0.616,-0.324 0.638,-0.275 0.638,-0.21C0.638,-0.145 0.612,-0.09 0.561,-0.047C0.511,-0.003 0.439,0.019 0.346,0.019C0.251,0.019 0.177,-0.003 0.122,-0.046C0.068,-0.088 0.041,-0.147 0.041,-0.222L0.185,-0.222Z" style="fill:rgb(241,227,210);fill-rule:nonzero;"/>
                </g>
            </g>
        </g>
    </g>
</svg>
